<mxfile host="65bd71144e">
    <diagram id="KM4yyXTNrfopv_NEp9GJ" name="Page-1">
        <mxGraphModel dx="1825" dy="1098" grid="1" gridSize="10" guides="1" tooltips="1" connect="1" arrows="1" fold="1" page="1" pageScale="1" pageWidth="850" pageHeight="1100" math="0" shadow="0">
            <root>
                <mxCell id="0"/>
                <mxCell id="1" parent="0"/>
                <mxCell id="2" value="Software Control" style="whiteSpace=wrap;html=1;shadow=1;fontSize=20;strokeWidth=2;dashed=1;direction=west;flipH=0;flipV=1;fontStyle=1;labelBackgroundColor=none;labelBorderColor=default;fillColor=#fff2cc;strokeColor=#d6b656;" vertex="1" parent="1">
                    <mxGeometry x="190" y="10" width="150" height="60" as="geometry"/>
                </mxCell>
                <mxCell id="3" style="edgeStyle=orthogonalEdgeStyle;rounded=0;orthogonalLoop=1;jettySize=auto;html=1;exitX=0;exitY=0.75;exitDx=0;exitDy=0;entryX=0.25;entryY=1;entryDx=0;entryDy=0;shadow=1;fontStyle=1;labelBackgroundColor=none;labelBorderColor=default;fillColor=#fff2cc;strokeColor=#d6b656;" edge="1" parent="1" source="7" target="26">
                    <mxGeometry relative="1" as="geometry">
                        <Array as="points">
                            <mxPoint x="957" y="337"/>
                        </Array>
                    </mxGeometry>
                </mxCell>
                <mxCell id="4" style="edgeStyle=none;rounded=0;orthogonalLoop=1;jettySize=auto;html=1;shadow=1;entryX=0.57;entryY=0.98;entryDx=0;entryDy=0;entryPerimeter=0;fontStyle=1;labelBackgroundColor=none;labelBorderColor=default;fillColor=#fff2cc;strokeColor=#d6b656;" edge="1" parent="1" source="7" target="26">
                    <mxGeometry relative="1" as="geometry">
                        <Array as="points"/>
                    </mxGeometry>
                </mxCell>
                <mxCell id="5" style="edgeStyle=none;rounded=0;orthogonalLoop=1;jettySize=auto;html=1;exitX=0;exitY=0.25;exitDx=0;exitDy=0;entryX=0.827;entryY=0.992;entryDx=0;entryDy=0;shadow=1;entryPerimeter=0;fontStyle=1;labelBackgroundColor=none;labelBorderColor=default;fillColor=#fff2cc;strokeColor=#d6b656;" edge="1" parent="1" source="7" target="26">
                    <mxGeometry relative="1" as="geometry">
                        <Array as="points">
                            <mxPoint x="1040" y="603"/>
                        </Array>
                    </mxGeometry>
                </mxCell>
                <mxCell id="6" style="edgeStyle=none;rounded=0;orthogonalLoop=1;jettySize=auto;html=1;exitX=0.5;exitY=0;exitDx=0;exitDy=0;entryX=0.5;entryY=0;entryDx=0;entryDy=0;shadow=1;labelBackgroundColor=none;labelBorderColor=default;fontSize=25;" edge="1" parent="1" source="7" target="29">
                    <mxGeometry relative="1" as="geometry"/>
                </mxCell>
                <mxCell id="7" value="" style="whiteSpace=wrap;html=1;shadow=1;fontSize=18;direction=west;flipH=0;flipV=1;fontStyle=1;labelBackgroundColor=none;labelBorderColor=default;fillColor=#fff2cc;strokeColor=#d6b656;" vertex="1" parent="1">
                    <mxGeometry x="787" y="210" width="170" height="520" as="geometry"/>
                </mxCell>
                <mxCell id="8" value="Water&amp;nbsp;&lt;br style=&quot;font-size: 25px;&quot;&gt;pump" style="whiteSpace=wrap;html=1;shadow=1;fontSize=25;direction=west;flipH=0;flipV=1;fontStyle=1;labelBackgroundColor=none;labelBorderColor=default;fillColor=#fff2cc;strokeColor=#d6b656;" vertex="1" parent="1">
                    <mxGeometry x="1440" y="200" width="140" height="100" as="geometry"/>
                </mxCell>
                <mxCell id="9" value="Sprayer" style="whiteSpace=wrap;html=1;shadow=1;fontSize=25;direction=west;flipH=0;flipV=1;fontStyle=1;labelBackgroundColor=none;labelBorderColor=default;fillColor=#fff2cc;strokeColor=#d6b656;" vertex="1" parent="1">
                    <mxGeometry x="1440" y="340" width="140" height="86" as="geometry"/>
                </mxCell>
                <mxCell id="10" value="Cooler" style="whiteSpace=wrap;html=1;shadow=1;fontSize=25;direction=west;flipH=0;flipV=1;fontStyle=1;labelBackgroundColor=none;labelBorderColor=default;fillColor=#fff2cc;strokeColor=#d6b656;" vertex="1" parent="1">
                    <mxGeometry x="1430" y="470" width="150" height="90" as="geometry"/>
                </mxCell>
                <mxCell id="11" value="Artifical&lt;br style=&quot;font-size: 25px;&quot;&gt;Lights" style="whiteSpace=wrap;html=1;shadow=1;fontSize=25;direction=west;flipH=0;flipV=1;fontStyle=1;labelBackgroundColor=none;labelBorderColor=default;fillColor=#fff2cc;strokeColor=#d6b656;" vertex="1" parent="1">
                    <mxGeometry x="1440" y="590" width="140" height="130" as="geometry"/>
                </mxCell>
                <mxCell id="12" style="edgeStyle=orthogonalEdgeStyle;rounded=0;orthogonalLoop=1;jettySize=auto;html=1;exitX=0;exitY=0.5;exitDx=0;exitDy=0;entryX=1;entryY=0.75;entryDx=0;entryDy=0;shadow=1;fontStyle=1;labelBackgroundColor=none;labelBorderColor=default;fillColor=#fff2cc;strokeColor=#d6b656;" edge="1" parent="1" source="13" target="19">
                    <mxGeometry relative="1" as="geometry">
                        <Array as="points">
                            <mxPoint x="355" y="333"/>
                        </Array>
                    </mxGeometry>
                </mxCell>
                <mxCell id="13" value="Humidity &lt;br style=&quot;font-size: 25px;&quot;&gt;Sensor" style="whiteSpace=wrap;html=1;shadow=1;fontSize=25;direction=west;flipH=0;flipV=1;fontStyle=1;labelBackgroundColor=none;labelBorderColor=default;fillColor=#fff2cc;strokeColor=#d6b656;" vertex="1" parent="1">
                    <mxGeometry x="200" y="251" width="155" height="140" as="geometry"/>
                </mxCell>
                <mxCell id="14" style="edgeStyle=orthogonalEdgeStyle;rounded=0;orthogonalLoop=1;jettySize=auto;html=1;exitX=0;exitY=0.5;exitDx=0;exitDy=0;entryX=1.001;entryY=0.615;entryDx=0;entryDy=0;entryPerimeter=0;shadow=1;fontStyle=1;labelBackgroundColor=none;labelBorderColor=default;fillColor=#fff2cc;strokeColor=#d6b656;" edge="1" parent="1" source="15" target="19">
                    <mxGeometry relative="1" as="geometry">
                        <Array as="points">
                            <mxPoint x="355" y="500"/>
                            <mxPoint x="540" y="500"/>
                        </Array>
                    </mxGeometry>
                </mxCell>
                <mxCell id="15" value="Tempreture&lt;br style=&quot;font-size: 25px;&quot;&gt;Sensor&lt;br style=&quot;font-size: 25px;&quot;&gt;" style="whiteSpace=wrap;html=1;shadow=1;fontSize=25;direction=west;flipH=0;flipV=1;fontStyle=1;labelBackgroundColor=none;labelBorderColor=default;fillColor=#fff2cc;strokeColor=#d6b656;" vertex="1" parent="1">
                    <mxGeometry x="170" y="450" width="185" height="110" as="geometry"/>
                </mxCell>
                <mxCell id="16" style="edgeStyle=orthogonalEdgeStyle;rounded=0;orthogonalLoop=1;jettySize=auto;html=1;exitX=0;exitY=0.75;exitDx=0;exitDy=0;entryX=1;entryY=0.75;entryDx=0;entryDy=0;shadow=1;fontStyle=1;labelBackgroundColor=none;labelBorderColor=default;fillColor=#fff2cc;strokeColor=#d6b656;" edge="1" parent="1" source="19" target="7">
                    <mxGeometry relative="1" as="geometry">
                        <Array as="points">
                            <mxPoint x="787" y="332"/>
                        </Array>
                    </mxGeometry>
                </mxCell>
                <mxCell id="17" style="edgeStyle=orthogonalEdgeStyle;rounded=0;orthogonalLoop=1;jettySize=auto;html=1;exitX=0;exitY=0.5;exitDx=0;exitDy=0;entryX=0.995;entryY=0.484;entryDx=0;entryDy=0;entryPerimeter=0;shadow=1;fontStyle=1;labelBackgroundColor=none;labelBorderColor=default;fillColor=#fff2cc;strokeColor=#d6b656;" edge="1" parent="1" source="19" target="7">
                    <mxGeometry relative="1" as="geometry">
                        <Array as="points">
                            <mxPoint x="685" y="464"/>
                        </Array>
                    </mxGeometry>
                </mxCell>
                <mxCell id="18" style="edgeStyle=orthogonalEdgeStyle;rounded=0;orthogonalLoop=1;jettySize=auto;html=1;exitX=0;exitY=0.25;exitDx=0;exitDy=0;entryX=1;entryY=0.25;entryDx=0;entryDy=0;shadow=1;fontStyle=1;labelBackgroundColor=none;labelBorderColor=default;fillColor=#fff2cc;strokeColor=#d6b656;" edge="1" parent="1" source="19" target="7">
                    <mxGeometry relative="1" as="geometry">
                        <Array as="points">
                            <mxPoint x="685" y="603"/>
                        </Array>
                    </mxGeometry>
                </mxCell>
                <mxCell id="19" value="" style="whiteSpace=wrap;html=1;shadow=1;fontSize=18;direction=west;flipH=0;flipV=1;fontStyle=1;labelBackgroundColor=none;labelBorderColor=default;fillColor=#fff2cc;strokeColor=#d6b656;" vertex="1" parent="1">
                    <mxGeometry x="540" y="210" width="145" height="490" as="geometry"/>
                </mxCell>
                <mxCell id="20" style="edgeStyle=orthogonalEdgeStyle;rounded=0;orthogonalLoop=1;jettySize=auto;html=1;exitX=0;exitY=0.5;exitDx=0;exitDy=0;entryX=1.017;entryY=0.855;entryDx=0;entryDy=0;entryPerimeter=0;shadow=1;fontStyle=1;labelBackgroundColor=none;labelBorderColor=default;fillColor=#fff2cc;strokeColor=#d6b656;" edge="1" parent="1" source="21" target="19">
                    <mxGeometry relative="1" as="geometry">
                        <Array as="points">
                            <mxPoint x="538" y="640"/>
                        </Array>
                    </mxGeometry>
                </mxCell>
                <mxCell id="21" value="Light &lt;br style=&quot;font-size: 25px;&quot;&gt;Sensor" style="whiteSpace=wrap;html=1;shadow=1;fontSize=25;direction=west;flipH=0;flipV=1;fontStyle=1;labelBackgroundColor=none;labelBorderColor=default;fillColor=#fff2cc;strokeColor=#d6b656;" vertex="1" parent="1">
                    <mxGeometry x="220" y="600" width="135" height="100" as="geometry"/>
                </mxCell>
                <mxCell id="22" style="edgeStyle=orthogonalEdgeStyle;rounded=0;orthogonalLoop=1;jettySize=auto;html=1;exitX=0.25;exitY=0;exitDx=0;exitDy=0;entryX=1;entryY=0.5;entryDx=0;entryDy=0;shadow=1;fontStyle=1;labelBackgroundColor=none;labelBorderColor=default;fillColor=#fff2cc;strokeColor=#d6b656;" edge="1" parent="1" source="26" target="8">
                    <mxGeometry relative="1" as="geometry">
                        <Array as="points">
                            <mxPoint x="1186" y="270"/>
                        </Array>
                    </mxGeometry>
                </mxCell>
                <mxCell id="23" style="edgeStyle=orthogonalEdgeStyle;rounded=0;orthogonalLoop=1;jettySize=auto;html=1;exitX=0.5;exitY=0;exitDx=0;exitDy=0;entryX=1;entryY=0.5;entryDx=0;entryDy=0;shadow=1;fontStyle=1;labelBackgroundColor=none;labelBorderColor=default;fillColor=#fff2cc;strokeColor=#d6b656;" edge="1" parent="1" source="26" target="9">
                    <mxGeometry relative="1" as="geometry">
                        <Array as="points">
                            <mxPoint x="1186" y="396"/>
                        </Array>
                    </mxGeometry>
                </mxCell>
                <mxCell id="24" style="edgeStyle=orthogonalEdgeStyle;rounded=0;orthogonalLoop=1;jettySize=auto;html=1;exitX=0.75;exitY=0;exitDx=0;exitDy=0;entryX=1;entryY=0.5;entryDx=0;entryDy=0;shadow=1;fontStyle=1;labelBackgroundColor=none;labelBorderColor=default;fillColor=#fff2cc;strokeColor=#d6b656;" edge="1" parent="1" source="26" target="10">
                    <mxGeometry relative="1" as="geometry">
                        <Array as="points">
                            <mxPoint x="1186" y="500"/>
                        </Array>
                    </mxGeometry>
                </mxCell>
                <mxCell id="25" style="edgeStyle=none;rounded=0;orthogonalLoop=1;jettySize=auto;html=1;entryX=0.997;entryY=0.389;entryDx=0;entryDy=0;shadow=1;exitX=0.904;exitY=0.055;exitDx=0;exitDy=0;exitPerimeter=0;fontStyle=1;labelBackgroundColor=none;labelBorderColor=default;fillColor=#fff2cc;strokeColor=#d6b656;entryPerimeter=0;" edge="1" parent="1" source="26" target="11">
                    <mxGeometry relative="1" as="geometry">
                        <mxPoint x="1190" y="620" as="sourcePoint"/>
                        <Array as="points">
                            <mxPoint x="1310" y="640"/>
                        </Array>
                    </mxGeometry>
                </mxCell>
                <mxCell id="26" value="&lt;font style=&quot;font-size: 38px&quot;&gt;Interface&lt;/font&gt;" style="rounded=0;whiteSpace=wrap;html=1;rotation=90;shadow=1;fontStyle=1;labelBackgroundColor=none;labelBorderColor=default;fillColor=#fff2cc;strokeColor=#d6b656;" vertex="1" parent="1">
                    <mxGeometry x="911" y="391" width="480" height="110" as="geometry"/>
                </mxCell>
                <mxCell id="27" value="MICRO - CONTROLLER" style="text;html=1;align=center;verticalAlign=middle;whiteSpace=wrap;rounded=0;shadow=1;fontSize=30;rotation=90;fontStyle=1;labelBackgroundColor=none;labelBorderColor=default;fillColor=#fff2cc;strokeColor=#d6b656;" vertex="1" parent="1">
                    <mxGeometry x="669.38" y="416.88" width="406.5" height="108.75" as="geometry"/>
                </mxCell>
                <mxCell id="28" value="ADC" style="text;html=1;align=center;verticalAlign=middle;whiteSpace=wrap;rounded=0;shadow=1;fontSize=38;rotation=90;fontStyle=1;labelBackgroundColor=none;labelBorderColor=default;fillColor=#fff2cc;strokeColor=#d6b656;" vertex="1" parent="1">
                    <mxGeometry x="413.6" y="403.6" width="400" height="96.56" as="geometry"/>
                </mxCell>
                <mxCell id="29" value="&lt;font style=&quot;font-size: 30px&quot;&gt;LCD&lt;/font&gt;" style="whiteSpace=wrap;html=1;aspect=fixed;shadow=1;labelBackgroundColor=none;labelBorderColor=default;fontSize=25;fillColor=#fff2cc;strokeColor=#d6b656;" vertex="1" parent="1">
                    <mxGeometry x="800" y="850" width="140" height="140" as="geometry"/>
                </mxCell>
            </root>
        </mxGraphModel>
    </diagram>
</mxfile>